<svg xmlns="http://www.w3.org/2000/svg" xmlns:xlink="http://www.w3.org/1999/xlink" id="Camada_1" x="0px" y="0px" viewBox="0 0 457.3 91.5" style="enable-background:new 0 0 457.3 91.5;" xml:space="preserve"><style type="text/css">	.st0{fill:#35C0D7;}	.st1{fill:#0E4351;}</style><g>	<g>		<path class="st0" d="M144.3,35.6L144.3,35.6c0,16.5-11.9,29.8-23.6,29.8h-17.1c-5.1,0-9.3-4.2-9.3-9.3v-41c0-5.1,4.2-9.3,9.3-9.3   h17.1C132.5,5.8,144.3,19.1,144.3,35.6z M132.9,35.6c0-10.9-6.5-19.2-11.9-19.2h-12.4c-1.6,0-2.8,1.3-2.8,2.8V52   c0,1.6,1.3,2.8,2.8,2.8H121C126.4,54.8,132.9,46.7,132.9,35.6L132.9,35.6z"></path>		<path class="st0" d="M148.9,19.2V8.6h11.5v10.5H148.9z M148.9,65.4V24.7h11.5v40.7H148.9z"></path>		<path class="st0" d="M196.5,31.9h-1.2c0,0,2.2,3.1,2.2,8.2c0,8.8-5.3,16-15.6,16c-3.8,0-6.7-1.7-6.9-1.7c0,0-0.6,0.6-0.6,2.1   c0,2.2,4.5,3.2,8.8,3.2c12.9,0,20,1.5,20,11.8c0,7.1-6.9,14.2-20,14.2c-13.9,0-20-6.4-20-13.5c0-3.4,1.7-6.8,5.4-8.7   c0,0-2.9-1.5-2.9-6.9c0-4.4,3.8-7.1,3.8-7.1c-2.1-1.7-3.3-5.6-3.3-9.4c0-8.9,4.8-16,15.7-16c1.8,0,3.4,0.2,4.9,0.6h16.5v10.5H200   L196.5,31.9z M174.6,69.6c0,1.9,0.8,5.6,8.3,5.6c5.6,0,8.7-1.7,8.7-5c0-2.4-3.1-3.8-8.5-3.8c-5.9,0-7.1,0-7.1,0   S174.7,67.9,174.6,69.6z M187.6,40.1c0-3.2-2.1-6.4-5.8-6.4c-3.7,0-5.8,3.3-5.8,6.4c0,3.1,2,6.5,5.6,6.5   C185.5,46.6,187.6,43.2,187.6,40.1z"></path>		<path class="st0" d="M202.8,19.2V8.6h11.5v10.5H202.8z M202.8,65.4V24.7h11.5v40.7H202.8z"></path>		<path class="st0" d="M239,35.2v15.7c0,2.2,1.8,4,4,4h5.9v10.5H238c-6.3,0-10.6-5.1-10.6-11.5V35.2h-9.9v-6.6c0,0,9.9-3.4,9.9-16.4   h11.5c0,9.4-5.8,12.8-5.8,12.8v1.2l2.4-1.5h13.3v10.5H239z"></path>		<path class="st0" d="M293.4,45c0,11.6-7.1,21-20.6,21c-14.4,0-20.6-9.4-20.6-21c0-11.6,6.4-21,20.6-21   C286.1,24.1,293.4,33.5,293.4,45z M281.9,45c0-5.6-2.4-10.4-9.2-10.4c-7.5,0-9.2,4.9-9.2,10.4c0,6,2.4,10.4,9,10.4   C279.5,55.5,281.9,50.9,281.9,45z"></path>		<path class="st1" d="M300.1,27.9c2.1-3.8,5-6.8,8.6-8.9c3.6-2.1,7.7-3.2,12.2-3.2c5.5,0,10.2,1.3,14.1,3.9c3.9,2.6,6.7,6.2,8.5,11   h-5.7c-1.4-3.3-3.5-5.9-6.4-7.8c-2.9-1.9-6.3-2.8-10.4-2.8c-3.6,0-6.8,0.8-9.7,2.5c-2.9,1.7-5.1,4.1-6.8,7.3   c-1.6,3.2-2.5,6.8-2.5,11c0,4.2,0.8,7.8,2.5,10.9c1.6,3.1,3.9,5.5,6.8,7.2c2.9,1.7,6.1,2.5,9.7,2.5c4.1,0,7.5-0.9,10.4-2.8   c2.9-1.8,5-4.4,6.4-7.7h5.7c-1.8,4.7-4.6,8.3-8.5,10.9c-3.9,2.6-8.6,3.9-14,3.9c-4.5,0-8.6-1.1-12.2-3.2c-3.6-2.1-6.5-5.1-8.6-8.9   C298,50,297,45.7,297,40.9C297,36,298,31.7,300.1,27.9z"></path>		<path class="st1" d="M361,28.4c2.2-1.3,4.9-2,8.2-2v5.1h-1.3c-3.6,0-6.4,1-8.6,2.9c-2.1,1.9-3.2,5.1-3.2,9.6v21.4h-4.9V27.1h4.9   v6.8C357.1,31.5,358.8,29.7,361,28.4z"></path>		<path class="st1" d="M408.9,48.1h-31.7c0.1,2.9,0.8,5.4,2.1,7.4c1.3,2.1,2.9,3.6,5,4.7c2.1,1.1,4.3,1.6,6.7,1.6   c3.2,0,5.9-0.8,8-2.3c2.2-1.5,3.6-3.6,4.3-6.2h5.2c-0.9,3.7-2.9,6.8-6,9.1c-3.1,2.4-6.9,3.5-11.5,3.5c-3.6,0-6.8-0.8-9.7-2.4   c-2.9-1.6-5.1-3.9-6.7-6.9c-1.6-3-2.4-6.4-2.4-10.4c0-4,0.8-7.5,2.4-10.4c1.6-3,3.8-5.3,6.7-6.9c2.8-1.6,6.1-2.4,9.7-2.4   c3.6,0,6.8,0.8,9.6,2.4c2.7,1.6,4.8,3.7,6.3,6.4c1.5,2.7,2.2,5.7,2.2,8.9C409,46,409,47.3,408.9,48.1z M402.4,36.9   c-1.2-2-2.8-3.5-4.9-4.6c-2.1-1-4.3-1.5-6.7-1.5c-3.6,0-6.8,1.2-9.3,3.5c-2.6,2.3-4,5.6-4.3,9.9h26.9   C404.1,41.3,403.5,38.9,402.4,36.9z"></path>		<path class="st1" d="M416.1,35.8c1.6-3,3.8-5.3,6.6-6.9c2.8-1.6,5.9-2.4,9.4-2.4c3.4,0,6.4,0.8,9.1,2.5c2.7,1.6,4.7,3.8,6,6.4   V13.5h4.9v51.9h-4.9v-8.5c-1.2,2.7-3.1,4.8-5.7,6.6c-2.7,1.7-5.8,2.6-9.4,2.6c-3.5,0-6.6-0.8-9.4-2.5c-2.8-1.6-5-3.9-6.5-6.9   c-1.6-3-2.3-6.4-2.3-10.4C413.7,42.3,414.5,38.8,416.1,35.8z M445.2,38.1c-1.3-2.3-3-4.1-5.2-5.4c-2.2-1.3-4.6-1.9-7.2-1.9   c-2.7,0-5.1,0.6-7.3,1.8c-2.1,1.2-3.8,3-5.1,5.3c-1.2,2.3-1.9,5.1-1.9,8.2c0,3.1,0.6,5.9,1.9,8.2c1.2,2.4,2.9,4.2,5.1,5.4   c2.1,1.2,4.6,1.9,7.3,1.9c2.6,0,5-0.6,7.2-1.9c2.2-1.3,3.9-3.1,5.2-5.4c1.3-2.3,1.9-5,1.9-8.1C447.1,43.2,446.5,40.5,445.2,38.1z"></path>	</g>	<g>		<path class="st1" d="M45.7,6.1h15.9c5.8,0,10.5,4.7,10.5,10.5v38.5c0,5.8-4.7,10.5-10.5,10.5H45.7C33.9,65.6,22,52.3,22,35.9v0   C22,19.4,33.9,6.1,45.7,6.1z M33.5,35.9c0,11.1,6.5,19.2,11.9,19.2h12.5c1.5,0,2.7-1.2,2.7-2.7V19.3c0-1.5-1.2-2.7-2.7-2.7H45.4   C40,16.6,33.5,24.9,33.5,35.9L33.5,35.9z"></path>		<path class="st0" d="M55.4,35.8L55.4,35.8c0,16.5-11.9,29.8-23.6,29.8H15.9c-5.8,0-10.5-4.7-10.5-10.5V16.6   c0-5.8,4.7-10.5,10.5-10.5h15.9C43.5,6.1,55.4,19.4,55.4,35.8z M43.9,35.8c0-10.9-6.5-19.2-11.9-19.2H19.5c-1.5,0-2.7,1.2-2.7,2.7   v33.1c0,1.5,1.2,2.7,2.7,2.7H32C37.4,55.1,43.9,46.9,43.9,35.8L43.9,35.8z"></path>		<path class="st1" d="M61.5,6.1H45.7c-0.1,0-0.2,0-0.4,0C45.7,6.7,46,7.3,46.3,8c4.2,1.2,6.6,4.7,7.2,8.6h4.5   c1.5,0,2.7,1.2,2.7,2.7v33.1c0,1.5-1.2,2.7-2.7,2.7H45.4c-5.4,0-11.9-8.1-11.9-19.2v0c0-3.6,0.7-7,1.9-9.8c-0.8-0.9-1.5-2-1.9-3.2   c-2.9-0.8-4.9-2.8-6.1-5.2C24.1,22.7,22,29,22,35.8v0c0,16.4,11.9,29.8,23.6,29.8h15.9c5.8,0,10.5-4.7,10.5-10.5V16.6   C72.1,10.8,67.4,6.1,61.5,6.1z"></path>	</g></g></svg>